<?xml version="1.0" encoding="utf-8"?><svg viewBox="0 0 38 33" xmlns="http://www.w3.org/2000/svg" xmlns:xlink="http://www.w3.org/1999/xlink"><style>:root>svg{display:none}:root>svg:target{display:block}</style><svg viewBox="0 0 31 31" id="arr-circ-right" xmlns="http://www.w3.org/2000/svg"><path d="M1.2 15.5c0-7.897 6.403-14.3 14.3-14.3 7.897 0 14.3 6.403 14.3 14.3 0 7.897-6.403 14.3-14.3 14.3-7.897 0-14.3-6.403-14.3-14.3z" fill="inherit"/><path d="M0 15.5C0 24.046 6.953 31 15.5 31 24.046 31 31 24.046 31 15.5 31 6.953 24.046 0 15.5 0 6.953 0 0 6.953 0 15.5zm28.599 0c0 7.223-5.876 13.099-13.099 13.099S2.401 22.723 2.401 15.5 8.278 2.401 15.5 2.401c7.223 0 13.099 5.876 13.099 13.099z" fill="var(--color-border);"/><path d="M12.162 8.644a1.2 1.2 0 000 1.693l5.15 5.151-5.15 5.15a1.201 1.201 0 001.693 1.694l6.003-6.004a1.2 1.2 0 000-1.692l-6.003-6.004a1.2 1.2 0 00-1.693.012z" fill="var(--color-arr)"/></svg><svg viewBox="0 0 13 21" id="arr-tr-right" xmlns="http://www.w3.org/2000/svg"><path d="M.928.28a.955.955 0 000 1.35l8.866 8.87-8.866 8.87a.955.955 0 001.35 1.35l9.54-9.545a.955.955 0 000-1.35L2.278.28a.954.954 0 00-1.35 0z" fill="inherit"/></svg><svg viewBox="0 0 38 33" id="basket" xmlns="http://www.w3.org/2000/svg"><g clip-path="url(#cclip0)"><path d="M37.873 6.426a.64.64 0 00-.521-.27H8.782l-.3-2.25-.003-.015A3.875 3.875 0 004.633.606H.723a.641.641 0 000 1.282h3.91a2.6 2.6 0 012.58 2.196l3.094 23.206.002.016a3.876 3.876 0 003.846 3.285h.538a2.894 2.894 0 005.705 0h5.354a2.895 2.895 0 10.07-1.282h-5.494a2.894 2.894 0 00-5.565 0h-.608a2.6 2.6 0 01-2.579-2.197l-.932-6.994h20a3.897 3.897 0 003.678-2.619l3.636-10.492a.641.641 0 00-.084-.581z" fill="inherit"/></g><defs><clipPath id="cclip0"><path fill="#fff" d="M0 0h38v33H0z"/></clipPath></defs></svg><svg fill="none" viewBox="0 0 30 30" id="insta" xmlns="http://www.w3.org/2000/svg"><path d="M29.91 8.816c-.073-1.597-.327-2.687-.698-3.641a7.351 7.351 0 00-1.73-2.657 7.354 7.354 0 00-2.657-1.73c-.954-.371-2.044-.625-3.64-.697C19.584.017 19.073 0 15 0s-4.585.017-6.184.09C7.219.163 6.129.417 5.175.788c-1.001.376-1.908.967-2.657 1.73a7.353 7.353 0 00-1.73 2.656C.416 6.13.162 7.22.09 8.815.017 10.415 0 10.926 0 15s.017 4.585.09 6.184c.073 1.597.327 2.687.698 3.641.376 1.001.967 1.908 1.73 2.657a7.35 7.35 0 002.657 1.73c.954.371 2.044.625 3.64.698 1.6.073 2.112.09 6.185.09 4.074 0 4.585-.017 6.185-.09 1.596-.073 2.687-.327 3.64-.698a7.669 7.669 0 004.387-4.387c.371-.954.625-2.044.698-3.64.073-1.6.09-2.111.09-6.185s-.017-4.585-.09-6.184zm-2.7 12.245c-.067 1.463-.311 2.257-.517 2.786a4.967 4.967 0 01-2.847 2.847c-.528.205-1.322.45-2.785.516-1.581.072-2.056.087-6.061.087-4.006 0-4.48-.015-6.061-.087-1.463-.067-2.257-.311-2.786-.516A4.65 4.65 0 014.43 25.57a4.647 4.647 0 01-1.123-1.724c-.205-.529-.45-1.323-.516-2.786-.072-1.581-.087-2.056-.087-6.06 0-4.006.015-4.48.087-6.062.067-1.463.311-2.257.516-2.786A4.65 4.65 0 014.43 4.43a4.644 4.644 0 011.724-1.122c.529-.206 1.323-.45 2.786-.517 1.581-.072 2.056-.087 6.061-.087s4.48.015 6.061.087c1.463.067 2.257.311 2.785.517a4.65 4.65 0 011.725 1.122 4.644 4.644 0 011.122 1.724c.206.529.45 1.323.517 2.786.072 1.581.087 2.056.087 6.061s-.015 4.48-.087 6.061z" fill="url(#dpaint0_linear)"/><path d="M15 7.297a7.703 7.703 0 100 15.406 7.703 7.703 0 000-15.406zM15 20a5 5 0 110-10 5 5 0 010 10z" fill="url(#dpaint1_linear)"/><path d="M24.807 6.993a1.8 1.8 0 11-3.6 0 1.8 1.8 0 013.6 0z" fill="url(#dpaint2_linear)"/><defs><linearGradient id="dpaint0_linear" x1="2.518" y1="27.482" x2="27.482" y2="2.517" gradientUnits="userSpaceOnUse"><stop stop-color="#FFD600"/><stop offset=".5" stop-color="#FF0100"/><stop offset="1" stop-color="#D800B9"/></linearGradient><linearGradient id="dpaint1_linear" x1="9.553" y1="20.447" x2="20.447" y2="9.553" gradientUnits="userSpaceOnUse"><stop stop-color="#FF6400"/><stop offset=".5" stop-color="#FF0100"/><stop offset="1" stop-color="#FD0056"/></linearGradient><linearGradient id="dpaint2_linear" x1="21.734" y1="8.266" x2="24.28" y2="5.72" gradientUnits="userSpaceOnUse"><stop stop-color="#F30072"/><stop offset="1" stop-color="#E50097"/></linearGradient></defs></svg><svg fill="none" viewBox="0 0 28 28" id="sci__phone" xmlns="http://www.w3.org/2000/svg"><circle cx="13.768" cy="13.768" r="13.768" fill="#FF6F61"/><g clip-path="url(#eclip0)"><path d="M20.277 16.988l-1.922-1.92c-.686-.687-1.852-.413-2.127.48-.206.617-.892.96-1.51.823-1.372-.343-3.225-2.127-3.568-3.568-.206-.618.206-1.304.824-1.51.892-.274 1.166-1.441.48-2.127l-1.921-1.922c-.55-.48-1.373-.48-1.853 0L7.376 8.548c-1.304 1.373.137 5.01 3.362 8.235 3.226 3.225 6.863 4.734 8.235 3.362l1.304-1.304c.48-.549.48-1.372 0-1.853z" fill="#fff"/></g><defs><clipPath id="eclip0"><path fill="#fff" transform="translate(6.884 6.884)" d="M0 0h13.768v13.768H0z"/></clipPath></defs></svg><svg fill="none" viewBox="0 0 28 28" id="sci__tg" xmlns="http://www.w3.org/2000/svg"><path d="M14 28c7.732 0 14-6.268 14-14S21.732 0 14 0 0 6.268 0 14s6.268 14 14 14z" fill="#039BE5"/><path d="M6.406 13.697l13.498-5.205c.627-.226 1.174.153.971 1.1h.001l-2.298 10.827c-.17.768-.627.954-1.265.593l-3.5-2.58-1.688 1.627c-.187.186-.344.344-.706.344l.249-3.562 6.486-5.86c.283-.249-.063-.389-.435-.142l-8.016 5.047-3.455-1.077c-.75-.239-.767-.75.158-1.112z" fill="#fff"/></svg><svg fill="none" viewBox="0 0 28 28" id="sci__viber" xmlns="http://www.w3.org/2000/svg"><g clip-path="url(#gclip0)"><path d="M16.8 0h-5.6C5.795 0 1.398 4.397 1.398 9.801v4.2A9.805 9.805 0 007 22.86v4.678c0 .406.508.618.797.33l4.064-4.064h4.94c5.405 0 9.802-4.397 9.802-9.801v-4.2C26.602 4.396 22.205 0 16.8 0z" fill="#665CAC"/><path d="M8.4 22.859a9.805 9.805 0 01-5.601-8.857v-4.2C2.799 4.396 7.195 0 12.599 0h-1.4C5.796 0 1.4 4.397 1.4 9.801v4.2a9.805 9.805 0 005.6 8.858v4.678c0 .406.508.618.797.33l.603-.604V22.86z" fill="#523494"/><path d="M21.047 17.396l-.42-2.273a.467.467 0 00-.368-.373l-3.3-.66a.467.467 0 00-.421.128l-1.341 1.34c-2.26-1.012-3.513-2.268-4.616-4.624l1.336-1.337a.467.467 0 00.128-.421l-.66-3.3a.467.467 0 00-.373-.368l-2.273-.42a.468.468 0 00-.188.004c-.6.137-1.148.439-1.584.875-.755.755-1.043 1.856-.834 3.185.35 2.232 1.444 5.337 3.461 7.363l.028.027c2.024 2.016 5.13 3.11 7.36 3.46.282.045.553.066.812.066.968 0 1.779-.305 2.374-.9.436-.436.739-.984.875-1.584a.473.473 0 00.004-.188z" fill="#fff"/><path d="M11.46 10.054l.457-.457-.456.457zM16.538 14.217l-.461.461.46-.46z" fill="#E5E5E5"/><path d="M18.674 19.188c-.26 0-.53-.022-.811-.066-2.232-.351-5.338-1.445-7.361-3.46l-.028-.028c-2.017-2.025-3.11-5.13-3.461-7.362-.17-1.074-.013-1.999.451-2.713a3.268 3.268 0 00-.497.408c-.755.755-1.044 1.856-.834 3.185.35 2.232 1.444 5.337 3.461 7.363l.028.027c2.023 2.016 5.129 3.11 7.36 3.46.282.045.553.066.812.066.968 0 1.779-.305 2.374-.9.153-.153.289-.32.407-.497-.527.342-1.169.517-1.9.517z" fill="#E5E5E5"/><path d="M14.934 7.934a.467.467 0 100 .934c1.029 0 1.866.837 1.866 1.867 0 .254.213.466.467.466a.471.471 0 00.467-.466c0-1.544-1.256-2.8-2.8-2.8z" fill="#fff"/><path d="M14.934 6.067c-.173 0-.347.01-.518.029a.467.467 0 10.102.928 3.738 3.738 0 014.127 4.126.471.471 0 00.412.515.471.471 0 00.515-.412 4.673 4.673 0 00-4.639-5.185z" fill="#fff"/><path d="M14.934 4.2c-.167 0-.336.007-.502.02a.467.467 0 00.07.93 5.607 5.607 0 015.882 6.877.471.471 0 00.331.558.471.471 0 00.578-.343 6.542 6.542 0 00-6.36-8.042z" fill="#fff"/></g><defs><clipPath id="gclip0"><path fill="#fff" d="M0 0h28v28H0z"/></clipPath></defs></svg></svg>